PathFileType	4	(X/Y/Z)	Walk7.trc
DataRate	CameraRate	NumFrames	NumMarkers	Units	OrigDataRate	OrigDataStartFrame	OrigNumFrames
200.000000	200.000000	6	60	mm	200.000000	570	814
Frame#	Times		RCAR		LToe		RWRU		RACR1		LUA1		LFA1		LASI		RFHD		LElbow		RLFC		RFA1		RTH3		LLFC		STRN		LCAR		LWRR		LACR1		RTB2		RToe		RWRR		RMT5		RMT1		LWRU		RMFC		RTH2		C7		RTB3		RPSI		LPSI		RCAL		RTB1		LTH3		LTB1		LTB4		LTH1		LTH4		RTB4		CLAV		LMT1		LMFC		RASI		RMMAL		RLMAL		LTH2		RBHD		LBHD		LTB2		LTB3		RElbow		RTH4		RUA1		LMMAL		RBack		LCAL		T10		RTH1		LMT5		LElbowM		RElbowM		LLMAL
			X1	Y1	Z1	X2	Y2	Z2	X3	Y3	Z3	X4	Y4	Z4	X5	Y5	Z5	X6	Y6	Z6	X7	Y7	Z7	X8	Y8	Z8	X9	Y9	Z9	X10	Y10	Z10	X11	Y11	Z11	X12	Y12	Z12	X13	Y13	Z13	X14	Y14	Z14	X15	Y15	Z15	X16	Y16	Z16	X17	Y17	Z17	X18	Y18	Z18	X19	Y19	Z19	X20	Y20	Z20	X21	Y21	Z21	X22	Y22	Z22	X23	Y23	Z23	X24	Y24	Z24	X25	Y25	Z25	X26	Y26	Z26	X27	Y27	Z27	X28	Y28	Z28	X29	Y29	Z29	X30	Y30	Z30	X31	Y31	Z31	X32	Y32	Z32	X33	Y33	Z33	X34	Y34	Z34	X35	Y35	Z35	X36	Y36	Z36	X37	Y37	Z37	X38	Y38	Z38	X39	Y39	Z39	X40	Y40	Z40	X41	Y41	Z41	X42	Y42	Z42	X43	Y43	Z43	X44	Y44	Z44	X45	Y45	Z45	X46	Y46	Z46	X47	Y47	Z47	X48	Y48	Z48	X49	Y49	Z49	X50	Y50	Z50	X51	Y51	Z51	X52	Y52	Z52	X53	Y53	Z53	X54	Y54	Z54	X55	Y55	Z55	X56	Y56	Z56	X57	Y57	Z57	X58	Y58	Z58	X59	Y59	Z59	X60	Y60	Z60

570	2.85	6.4421	823.23	349.49	-207.69	29.504	-86.337	15.318	857.85	282.33	-25.086	1471.8	186.32	-35.743	1320.2	-268.18	61.462	1039	-305.29	10.911	1002.7	-170.48	132.37	1651.2	67.347	-49.447	1148.1	-315.84	101.52	509.35	167.07	-27.375	999.92	310.81	39.308	630.34	176.58	-187.97	485.45	-169.28	89.588	1272.2	-12.346	145.74	895.34	-303.34	130.29	932.62	-248.61	-41.154	1503.6	-186.58	196.2	291.16	133.68	380.93	80.646	65.095	-51.939	860.91	341.29	300.98	50.362	141.77	331.8	76.124	54.18	66.885	906.73	-312.64	78.509	494.17	21.316	54.871	731.98	196.22	-137.55	1536.1	10.47	196.94	206.49	70.166	-205.49	1040.6	44.037	-206.41	1049.4	-64.388	119.2	33.462	82.654	174.74	377.84	77.888	-122.46	620.41	-192.14	-221.62	335.4	-66.49	-269.02	264.97	-62.504	-88.992	788.59	-222.1	-105.29	704.85	-207.87	185.61	291.41	73.711	27.45	1442.7	-15.674	-262.92	44.02	-68.313	-180.85	483.03	-30.414	17.738	1020.6	148.08	192.92	107.07	26.678	174.65	75.649	122.19	-52.113	698.52	-187.33	-37.554	1671.8	84.559	-32.863	1673.8	-58.274	-252.64	250.5	-121.41	-314.92	192.5	-59.141	-104.76	1134.9	301.09	1.068	704.65	186.67	-53.792	1292.1	258.33	-380.56	115.53	-20.461	-194.94	1416.5	127	-481.31	94.514	-78.613	-188.06	1179	-13.5	-37.741	784.84	198.18	-313.87	30.919	-154.67	-84.605	1115.9	-233.37	-135.45	1109.5	212.17	-410.91	100.09	-119.72
571	2.855	11.614	822.85	350.48	-207.87	29.481	-86.278	20.531	857.4	283.27	-20.007	1472.1	187.45	-30.875	1320.3	-267.11	65.637	1038.5	-304.28	16.588	1002.8	-168.97	137.87	1651.3	68.219	-44.774	1148.2	-314.5	107.65	510.04	167.57	-21.667	999.68	311.61	45.503	631.12	177.2	-180.46	485.3	-168.71	95.157	1272.7	-11.068	149.2	894.5	-302.75	134.06	931.75	-247.93	-35.947	1503.8	-185.62	199.88	290.78	133.96	382.11	77.423	64.915	-46.644	860.78	342.34	301.83	48.191	141.8	332.86	73.671	54.117	70.37	906.18	-311.83	84.456	495.13	21.864	60.915	732.79	196.53	-132.27	1536.4	11.484	199.44	206.06	70.45	-199.84	1040.8	44.52	-200.59	1049.3	-64.032	119.62	34.119	82.992	179.13	377.64	78.225	-115.14	619.95	-191.57	-216.06	335.62	-66.294	-264.55	265.95	-62.344	-82.237	788.28	-221.14	-98.252	704.48	-207.04	189.05	291.08	74.031	32.77	1443.1	-14.545	-262.79	43.939	-68.227	-173.35	482.63	-30.295	23.387	1021.4	149.41	194.23	106.75	27.04	175.78	75.512	122.69	-45.14	698.35	-186.38	-32.002	1672.2	85.574	-27.435	1674.1	-57.266	-248.49	251.34	-121.25	-311.56	194.16	-59.072	-98.741	1134.8	301.79	7.1497	705.34	187.27	-48.197	1292.1	259.22	-378.25	118.24	-20.354	-189.7	1416.6	127.94	-479.31	99.349	-78.468	-182.61	1179.2	-12.884	-31.715	785.41	198.79	-313.4	31.808	-154.27	-79.812	1116.1	-231.93	-129.46	1109.4	212.89	-408.96	103.42	-119.59
572	2.86	16.808	822.62	351.49	-208.1	29.45	-86.218	25.78	857.11	284.22	-14.925	1472.4	188.59	-26.002	1320.5	-266.02	69.749	1038.1	-303.28	22.218	1003.1	-167.48	143.38	1651.5	69.107	-40.126	1148.4	-313.14	113.49	510.66	168.16	-15.947	999.61	312.42	51.511	631.89	177.9	-172.63	485.17	-168.17	100.72	1273.4	-9.7861	152.53	893.73	-302.2	137.72	930.95	-247.29	-30.691	1504.2	-184.64	203.34	290.4	134.35	383.17	74.408	64.852	-41.33	860.81	343.4	302.57	46.152	141.96	333.82	71.403	54.158	73.733	905.76	-311.04	90.323	496.08	22.447	66.806	733.59	196.95	-126.98	1536.7	12.492	201.8	205.67	70.807	-194.19	1041.2	44.992	-194.8	1049.3	-63.704	120	34.756	83.33	183.35	377.45	78.667	-107.62	619.51	-191.04	-210.18	335.9	-66.14	-259.79	267.05	-62.198	-75.448	788.03	-220.17	-91.102	704.16	-206.24	192.36	290.78	74.44	38.095	1443.6	-13.402	-262.66	43.873	-68.12	-165.46	482.2	-30.214	29.012	1022.3	150.72	195.46	106.49	27.451	176.8	75.381	123.21	-38.036	698.25	-185.46	-26.436	1672.6	86.596	-21.985	1674.6	-56.251	-244.08	252.29	-121.11	-307.9	195.96	-59.01	-92.727	1134.9	302.48	13.07	706.06	187.93	-42.599	1292.3	260.12	-375.68	121.16	-20.212	-184.46	1416.8	128.87	-477.02	104.53	-78.24	-177.16	1179.5	-12.262	-25.84	786.03	199.43	-312.88	32.819	-153.85	-75.039	1116.4	-230.46	-123.44	1109.4	213.58	-406.79	106.99	-119.4
573	2.865	22.027	822.54	352.5	-208.38	29.405	-86.158	31.069	856.98	285.2	-9.8376	1472.9	189.72	-21.117	1320.9	-264.91	73.797	1037.8	-302.29	27.812	1003.5	-166.02	148.9	1651.7	70.011	-35.506	1148.7	-311.77	119.03	511.2	168.83	-10.219	999.7	313.23	57.302	632.64	178.66	-164.49	485.05	-167.66	106.27	1274.1	-8.5095	155.74	893.03	-301.69	141.29	930.23	-246.68	-25.391	1504.7	-183.64	206.6	290.03	134.82	384.12	71.592	64.874	-35.995	860.99	344.46	303.21	44.246	142.22	334.69	69.307	54.275	76.978	905.45	-310.28	96.065	496.98	23.071	72.526	734.35	197.47	-121.68	1537.1	13.495	204.05	205.3	71.222	-188.54	1041.7	45.461	-189.03	1049.4	-63.391	120.37	35.369	83.658	187.41	377.26	79.2	-99.907	619.1	-190.55	-203.95	336.24	-66.03	-254.71	268.26	-62.067	-68.632	787.83	-219.21	-83.839	703.87	-205.46	195.52	290.49	74.923	43.422	1444.2	-12.252	-262.51	43.829	-67.993	-157.16	481.72	-30.168	34.618	1023.3	151.99	196.63	106.27	27.891	177.75	75.249	123.72	-30.803	698.22	-184.6	-20.865	1673.1	87.623	-16.52	1675	-55.231	-239.4	253.37	-121	-303.95	197.91	-58.951	-86.734	1135	303.15	18.809	706.78	188.64	-37	1292.6	261.01	-372.83	124.28	-20.032	-179.21	1417.1	129.79	-474.42	110.05	-77.921	-171.73	1179.9	-11.623	-20.12	786.68	200.07	-312.31	33.961	-153.39	-70.291	1117	-228.97	-117.41	1109.6	214.24	-404.38	110.82	-119.15
574	2.87	27.273	822.61	353.53	-208.7	29.341	-86.099	36.402	857.01	286.19	-4.7399	1473.5	190.84	-16.214	1321.4	-263.77	77.783	1037.6	-301.32	33.378	1004	-164.62	154.41	1652	70.929	-30.917	1149.2	-310.4	124.22	511.64	169.57	-4.4891	999.94	314.06	62.845	633.35	179.48	-156.04	484.94	-167.18	111.79	1274.9	-7.2479	158.83	892.41	-301.22	144.76	929.59	-246.11	-20.051	1505.2	-182.62	209.64	289.64	135.36	384.98	68.967	64.95	-30.639	861.32	345.51	303.77	42.474	142.57	335.48	67.376	54.441	80.115	905.26	-309.55	101.63	497.82	23.739	78.062	735.06	198.1	-116.39	1537.7	14.494	206.18	204.96	71.676	-182.89	1042.2	45.937	-183.3	1049.6	-63.078	120.71	35.952	83.97	191.29	377.06	79.806	-92.007	618.69	-190.1	-197.36	336.65	-65.964	-249.3	269.58	-61.951	-61.792	787.68	-218.26	-76.469	703.62	-204.72	198.53	290.21	75.463	48.745	1444.9	-11.1	-262.32	43.819	-67.846	-148.43	481.18	-30.153	40.208	1024.3	153.22	197.72	106.09	28.344	178.61	75.115	124.22	-23.446	698.25	-183.8	-15.295	1673.7	88.651	-11.047	1675.6	-54.208	-234.43	254.56	-120.93	-299.67	200.01	-58.892	-80.772	1135.4	303.82	24.348	707.48	189.37	-31.401	1293	261.89	-369.66	127.61	-19.813	-173.95	1417.5	130.7	-471.47	115.91	-77.502	-166.29	1180.3	-10.955	-14.559	787.36	200.74	-311.68	35.244	-152.91	-65.569	1117.6	-227.45	-111.37	1110	214.88	-401.72	114.9	-118.84
575	2.875	32.549	822.82	354.57	-209.05	29.251	-86.041	41.785	857.2	287.21	0.37196	1474.3	191.96	-11.286	1322	-262.6	81.709	1037.6	-300.37	38.93	1004.6	-163.28	159.92	1652.4	71.858	-26.361	1149.8	-309.03	129.07	511.97	170.37	1.2386	1000.3	314.9	68.116	634	180.33	-147.27	484.84	-166.75	117.3	1275.7	-6.01	161.81	891.86	-300.78	148.15	929.03	-245.57	-14.68	1505.9	-181.58	212.48	289.25	135.96	385.77	66.524	65.055	-25.26	861.78	346.56	304.26	40.839	143	336.2	65.601	54.63	83.151	905.19	-308.84	106.99	498.57	24.456	83.402	735.69	198.83	-111.11	1538.2	15.489	208.18	204.64	72.155	-177.23	1042.7	46.428	-177.6	1049.9	-62.748	121.04	36.504	84.259	194.98	376.86	80.471	-83.926	618.31	-189.71	-190.41	337.11	-65.94	-243.55	271	-61.849	-54.933	787.56	-217.33	-68.994	703.39	-204.01	201.38	289.93	76.044	54.062	1445.6	-9.9507	-262.07	43.853	-67.681	-139.28	480.58	-30.164	45.786	1025.3	154.4	198.76	105.93	28.795	179.41	74.977	124.68	-15.971	698.35	-183.06	-9.7326	1674.3	89.68	-5.5726	1676.2	-53.183	-229.16	255.86	-120.88	-295.06	202.25	-58.828	-74.849	1135.8	304.49	29.675	708.16	190.13	-25.804	1293.6	262.78	-366.16	131.12	-19.554	-168.69	1418	131.61	-468.16	122.08	-76.972	-160.85	1180.8	-10.252	-9.1588	788.05	201.41	-310.98	36.681	-152.41	-60.876	1118.5	-225.91	-105.33	1110.5	215.5	-398.78	119.22	-118.46
